M48
INCH,TZ
T1C0.0315
T2C0.0400
T3C0.0402
%
G90
G05
T1
X68620Y-43500
X68620Y-46500
X70000Y-43520
X70000Y-46520
X71336Y-43484
X71336Y-46484
X71800Y-39080
X71800Y-42080
X72336Y-43484
X72336Y-46484
X73240Y-39100
X73240Y-42100
X73336Y-43484
X73336Y-46484
X74336Y-43484
X74336Y-46484
T2
X70300Y-39080
X72320Y-47640
X73060Y-38120
T3
X66440Y-40717
X66440Y-41898
X66440Y-43079
X66440Y-44260
X69580Y-37000
X70761Y-37000
T0
M30
